<?xml version="1.0" encoding="UTF-8"?>
<svg width="400px" height="400px" viewBox="0 0 400 400" version="1.1" xmlns="http://www.w3.org/2000/svg" xmlns:xlink="http://www.w3.org/1999/xlink">
    <title>EdgePoint lettermark icon - circle</title>
    <defs>
        <circle id="path-1" cx="199.501247" cy="199.501247" r="199.501247"></circle>
    </defs>
    <g id="EdgePoint-lettermark-icon---circle" stroke="none" stroke-width="1" fill="none" fill-rule="evenodd">
        <g id="e" transform="translate(1.229868, 0.160608)">
            <mask id="mask-2" fill="white">
                <use xlink:href="#path-1"></use>
            </mask>
            <use id="blue-circle" fill="#12529E" xlink:href="#path-1"></use>
            <path d="M392.433053,9.83939206 C400.259936,40.6748758 428.763727,181.411995 428.763727,181.411995 C405.393315,209.163651 323.370452,288.852636 262.61166,318.24652 C212.474639,342.501804 103.907929,368.864958 58.9158493,298.069691 C13.9237691,227.274425 66.7681818,155.766866 66.7681818,155.766866 C110.520148,100.147635 176.708905,55.9625031 232.623773,51.5577779 C283.775238,47.5375333 306.339846,67.9921027 308.336859,93.2067208 C312.601875,147.322622 223.047426,212.718436 103.279181,222.478216 C99.3039815,241.523352 103.297511,260.65349 106.30814,268.052024 C115.16911,289.847334 137.0119,298.093901 161.851943,298.069686 C271.331932,297.934277 352.716141,176.733862 369.961369,121.673116 C375.869506,101.41283 388.102734,65.6289472 392.433053,9.83939206 Z M240.334897,107.996723 C239.014511,91.5349375 227.758917,82.2136402 203.118507,84.1532403 C153.788471,88.0478264 116.059039,143.28325 105.280196,200.995784 C212.600827,192.544527 241.858114,127.639393 240.334897,107.996723 Z" fill="#FFFFFF" mask="url(#mask-2)"></path>
        </g>
    </g>
</svg>